<?xml version="1.0" encoding="iso-8859-1"?>
<!-- Uploaded to: SVG Repo, www.svgrepo.com, Generator: SVG Repo Mixer Tools -->
<!DOCTYPE svg PUBLIC "-//W3C//DTD SVG 1.1//EN" "http://www.w3.org/Graphics/SVG/1.1/DTD/svg11.dtd">
<svg fill="#000000" version="1.1" id="Capa_1" xmlns="http://www.w3.org/2000/svg" xmlns:xlink="http://www.w3.org/1999/xlink" 
	 width="800px" height="800px" viewBox="0 0 54.4 54.4" xml:space="preserve">
<g>
	<g>
		<path d="M33.646,15.202c1.103,0.076,1.875-0.73,1.697-1.82c-0.748-4.55-1.834-8.397-3.08-11.262
			c-0.441-1.013-1.76-1.943-2.861-2.032C28.677,0.029,27.942,0,27.201,0c-0.741,0-1.476,0.03-2.202,0.088
			c-1.101,0.089-2.419,1.02-2.86,2.032c-1.248,2.865-2.332,6.711-3.08,11.262c-0.179,1.09,0.594,1.896,1.696,1.82
			c2.139-0.148,4.301-0.223,6.447-0.223C29.348,14.979,31.508,15.054,33.646,15.202z"/>
		<path d="M15.202,20.753c0.076-1.102-0.73-1.875-1.82-1.696c-4.55,0.748-8.397,1.833-11.262,3.08
			c-1.013,0.441-1.943,1.759-2.032,2.86C0.03,25.723,0,26.458,0,27.199c0,0.74,0.03,1.476,0.088,2.201
			c0.089,1.102,1.02,2.42,2.032,2.86c2.865,1.248,6.711,2.332,11.262,3.08c1.09,0.179,1.896-0.595,1.82-1.696
			c-0.147-2.139-0.223-4.301-0.223-6.447C14.979,25.054,15.055,22.892,15.202,20.753z"/>
		<path d="M20.753,39.197c-1.102-0.076-1.875,0.73-1.696,1.82c0.748,4.551,1.833,8.396,3.08,11.262
			c0.441,1.014,1.759,1.943,2.86,2.032c0.726,0.06,1.461,0.089,2.202,0.089c0.741,0,1.476-0.031,2.201-0.089
			c1.102-0.089,2.42-1.02,2.861-2.032c1.248-2.865,2.332-6.711,3.079-11.262c0.179-1.09-0.594-1.896-1.696-1.82
			c-2.139,0.147-4.301,0.224-6.446,0.224C25.052,39.421,22.892,39.345,20.753,39.197z"/>
		<path d="M34.005,18.231c-2.174-0.163-4.448-0.252-6.805-0.252c-2.356,0-4.63,0.089-6.805,0.252
			c-1.101,0.083-2.082,1.063-2.164,2.164c-0.163,2.174-0.252,4.448-0.252,6.805s0.089,4.631,0.252,6.806
			c0.083,1.101,1.063,2.082,2.164,2.164c2.174,0.163,4.448,0.252,6.805,0.252c2.356,0,4.63-0.089,6.805-0.252
			c1.101-0.083,2.082-1.063,2.164-2.164c0.163-2.175,0.252-4.448,0.252-6.806c0-2.356-0.089-4.629-0.252-6.805
			C36.086,19.294,35.105,18.313,34.005,18.231z"/>
		<path d="M15.966,13.711c0.592-3.918,1.447-7.571,2.555-10.665c0.373-1.04-0.132-1.609-1.162-1.209
			C10.254,4.596,4.596,10.254,1.837,17.36c-0.399,1.03,0.169,1.534,1.209,1.162c3.094-1.109,6.747-1.964,10.664-2.556
			C14.803,15.801,15.801,14.803,15.966,13.711z"/>
		<path d="M13.711,38.434c-3.917-0.592-7.571-1.447-10.665-2.555c-1.039-0.373-1.609,0.132-1.209,1.162
			c2.759,7.105,8.417,12.764,15.522,15.521c1.03,0.399,1.534-0.169,1.162-1.209c-1.109-3.094-1.964-6.746-2.556-10.665
			C15.801,39.597,14.804,38.599,13.711,38.434z"/>
		<path d="M54.312,29.402c0.059-0.727,0.088-1.461,0.088-2.203c0-0.74-0.03-1.476-0.088-2.202c-0.09-1.101-1.021-2.419-2.032-2.86
			c-2.865-1.248-6.712-2.332-11.263-3.08c-1.09-0.179-1.896,0.594-1.819,1.696c0.147,2.139,0.223,4.301,0.223,6.447
			c0,2.145-0.075,4.308-0.223,6.447c-0.076,1.102,0.729,1.875,1.819,1.695c4.551-0.748,8.397-1.833,11.263-3.08
			C53.293,31.822,54.223,30.503,54.312,29.402z"/>
		<path d="M38.434,40.688c-0.592,3.917-1.447,7.571-2.555,10.665c-0.373,1.04,0.133,1.609,1.162,1.209
			c7.105-2.759,12.764-8.417,15.523-15.521c0.398-1.03-0.17-1.534-1.209-1.162c-3.094,1.109-6.748,1.964-10.666,2.556
			C39.598,38.599,38.6,39.596,38.434,40.688z"/>
		<path d="M40.689,15.966c3.916,0.592,7.57,1.447,10.664,2.555c1.041,0.373,1.609-0.132,1.209-1.162
			C49.805,10.254,44.146,4.596,37.04,1.837c-1.03-0.399-1.534,0.169-1.162,1.209c1.108,3.094,1.964,6.747,2.556,10.665
			C38.6,14.803,39.598,15.801,40.689,15.966z"/>
	</g>
</g>
</svg>